<svg xmlns="http://www.w3.org/2000/svg" viewBox="0 0 180 180" width="180" height="180">
  <defs>
    <radialGradient id="bg" cx="50%" cy="45%" r="55%">
      <stop offset="0%" stop-color="#FFD1DC"/>
      <stop offset="100%" stop-color="#FFB6C1"/>
    </radialGradient>
    <radialGradient id="bl" cx="50%" cy="50%" r="50%">
      <stop offset="0%" stop-color="#FF8A80" stop-opacity="0.45"/>
      <stop offset="100%" stop-color="#FF8A80" stop-opacity="0"/>
    </radialGradient>
  </defs>
  <circle cx="90" cy="90" r="90" fill="url(#bg)"/>
  <g transform="translate(93,101.25) scale(2.8125)">
    <ellipse cx="0" cy="8" rx="18" ry="9" fill="#FFF0F0"/>
    <path d="M16,10 Q23,6 21,-2 Q19,-5 15,-2 Q12,2 10,6" fill="none" stroke="#FFF0F0" stroke-width="4" stroke-linecap="round"/>
    <ellipse cx="-4" cy="-2" rx="14" ry="12" fill="#FFF0F0"/>
    <line x1="-17" y1="0" x2="-9" y2="1" stroke="#D4C0C4" stroke-width="0.6" stroke-linecap="round"/>
    <line x1="-16" y1="3" x2="-9" y2="3" stroke="#D4C0C4" stroke-width="0.6" stroke-linecap="round"/>
    <line x1="9" y1="0" x2="6" y2="1" stroke="#D4C0C4" stroke-width="0.6" stroke-linecap="round"/>
    <line x1="8" y1="3" x2="6" y2="3" stroke="#D4C0C4" stroke-width="0.6" stroke-linecap="round"/>
    <ellipse cx="-10" cy="2" rx="3" ry="1.6" fill="url(#bl)"/>
    <ellipse cx="4" cy="2" rx="3" ry="1.6" fill="url(#bl)"/>
    <polygon points="-14,-10 -18,-21 -7,-14" fill="#FFF0F0"/>
    <polygon points="6,-10 10,-21 2,-14" fill="#FFF0F0"/>
    <polygon points="-14,-11 -17,-19 -8,-13" fill="#FFCDD2"/>
    <polygon points="6,-11 9,-19 3,-13" fill="#FFCDD2"/>
    <path d="M-9,-3 Q-7,-1.5 -5,-3" fill="none" stroke="#5D4E60" stroke-width="1" stroke-linecap="round"/>
    <path d="M1,-3 Q3,-1.5 5,-3" fill="none" stroke="#5D4E60" stroke-width="1" stroke-linecap="round"/>
    <ellipse cx="-2" cy="2" rx="1.2" ry="0.9" fill="#E57373"/>
    <path d="M-4,3.5 Q-2,5.5 0,3.5" fill="none" stroke="#5D4E60" stroke-width="0.7" stroke-linecap="round"/>
    <ellipse cx="-11" cy="11" rx="4" ry="2.5" fill="#FFF0F0"/>
    <ellipse cx="8" cy="12" rx="4" ry="2.5" fill="#FFF0F0"/>
  </g>
</svg>